<svg enable-background="new 0 0 350 92.6" viewBox="0 0 350 92.6" xmlns="http://www.w3.org/2000/svg"><path d="m158 56.7c-1.9 1.1-3.3 1.6-4.9 1.6-2.9 0-5.1-2.2-5.1-5.9 0-4.6 2.5-7.1 10-7.6zm4.2 5.4h10.6v-1.1l-4.3-2v-24.7c0-7.6-4.3-11.5-11.6-11.5-7.7 0-18.5 3.8-18.5 10.8 0 2.9 2 5.5 5.3 5.5 3 0 5.1-2.6 5.1-5.4 0-2.1-1.1-4.7-3.4-6.6 1.3-.2 2.7-.3 4-.3 6.8 0 8.6 3.4 8.6 8.1v7.7c-12.5.1-20.9 4.2-20.9 11.9 0 5.2 3.8 8.8 9.9 8.8 4.6 0 8.2-2.2 11.1-5.3l.4.2c0 2.3 1.6 3.9 3.7 3.9zm122.1-57.5h11.6l-8.5 13.3h-6.6zm-34.8 6.7c0-3.7 2.9-6.7 6.5-6.7s6.5 3 6.5 6.7-2.9 6.7-6.5 6.7-6.5-3-6.5-6.7zm91.9 23c0-6-2.7-11.6-10-11.6-4.4 0-9.1 2.3-13.9 7l-.3-.2v-5.5h-14.4v1.2l4.7 2.3v31.5l-4.3 2v1.2h18.2v-1.2l-3.5-2v-27.8c2.8-1.2 4.6-1.6 7.4-1.6 4.6 0 5.8 3.4 5.8 8.1v21.3l-4.1 2v1.2h18.8v-1.2l-4.3-2zm-90.2-6.8v31.5l-4.5 2v1.2h19.3v-1.2l-4.3-2v-35h-15.2v1.2zm-125.5 16.6c0 11.8-3.8 16.2-8 16.2-3.6 0-5.7-1.5-7.7-4.6v-26.3c2-.5 3.8-.8 5.5-.8 6.6.1 10.2 4.8 10.2 15.5zm-26.1 34.6-4.3 2v1.1h19.8v-1.1l-5.1-2v-16.2c1.7.3 3.4.5 5.1.5 13.8 0 21.8-10.2 21.8-21.5 0-11.6-6.5-19.2-14.4-19.2-4.8 0-9.6 2.9-12.6 5.8l-.3-.2v-3.9h-14.6v1.2l4.6 2.3zm193.3-36.1c0 10.5-2.5 17.6-8.4 17.6s-8.4-7.1-8.4-17.6 2.5-17.6 8.4-17.6 8.4 7.1 8.4 17.6zm11.2 0c0-10.8-5.9-20.3-19.1-20.3-13 0-20.1 10.2-20.1 20.3 0 10.8 5.9 20.4 19.1 20.4 13.1 0 20.1-10.3 20.1-20.4zm-57.2 7.7c0-7.3-5.7-9.9-11-12.1-4.6-1.9-9-3.6-9-7.9 0-2.5 1.8-5.1 5-5.1 3.9 0 6 2.6 10.9 9.4l1.6-.3-.2-10.4c-2.3-.8-7-1.5-10.2-1.5-8.8 0-15.2 5.5-15.2 12.1 0 7.4 5.7 10 11 12.3 4.6 1.9 9 3.6 9 7.8 0 3.4-2 5.7-5.2 5.7-4.2 0-7.3-2.8-13.2-11.1l-1.6.2.2 11.5c3.8 1.5 7.9 2.3 12.8 2.3 7.7-.2 15.1-5.1 15.1-12.9zm-34-16c0-6-2.7-11.6-10-11.6-4.4 0-9.1 2.3-13.9 7l-.3-.2v-5.5h-14.4v1.2l4.7 2.3v31.5l-4.3 2v1.2h18.2v-1.2l-3.5-2v-27.8c2.8-1.2 4.6-1.6 7.4-1.6 4.6 0 5.8 3.4 5.8 8.1v21.3l-3.5 2v1.2h18.2v-1.2l-4.3-2zm-136.9 3.7-6.4-11.1 3.6-1.7v-1.2h-19.6v1.2l3.9 1.7 12 18.2-11.2 13.6-4.3 2.3v1.2h13.4v-1.2l-3.3-1.8 7.3-11 6.6 11-3.9 1.8v1.2h20v-1.2l-3.9-1.8-12.4-18.3 10.7-13.4 4.6-2.3v-1.2h-13.6v1.2l3.2 1.9zm-25.4-33.4h-46.4v1.5l7 2.2v50.2l-7 2.2v1.5h48.2l1.7-18.7-1.7-.4-7.1 9.4c-2.9 3.8-5.8 5.7-10.7 6l-10.8.5v-23.7h3c5 0 6.9 1.8 9 7.4l1.1 2.8h1.8v-24.3h-1.8l-1.1 3c-2 5.6-4 7.4-9 7.4h-3v-24l8 .4c6.1.3 8.3 1.9 11.5 6.5l6.8 9.9 1.7-.5c0 .1-1.2-19.3-1.2-19.3z" fill="#fff"/><path d="m538.4-126.4v595.3" fill="none"/></svg>