<?xml version="1.0" encoding="utf-8"?>
<!-- Generator: Adobe Illustrator 24.2.3, SVG Export Plug-In . SVG Version: 6.00 Build 0)  -->
<svg version="1.1" id="Capa_1" xmlns="http://www.w3.org/2000/svg" xmlns:xlink="http://www.w3.org/1999/xlink" x="0px" y="0px"
	 viewBox="0 0 393.7 122.9" style="enable-background:new 0 0 393.7 122.9;" xml:space="preserve">
<style type="text/css">
	.st0{clip-path:url(#SVGID_2_);fill:#0075BF;}
	.st1{clip-path:url(#SVGID_2_);fill:none;stroke:#1E1E1C;stroke-width:0.318;stroke-miterlimit:10;}
	.st2{clip-path:url(#SVGID_2_);fill:#0F3578;}
	.st3{clip-path:url(#SVGID_2_);fill-rule:evenodd;clip-rule:evenodd;fill:#0F3578;}
	.st4{clip-path:url(#SVGID_2_);fill:#E65300;}
	.st5{fill:#0075BF;}
</style>
<g>
	<defs>
		<rect id="SVGID_1_" y="0" width="393.7" height="122.9"/>
	</defs>
	<clipPath id="SVGID_2_">
		<use xlink:href="#SVGID_1_"  style="overflow:visible;"/>
	</clipPath>
	<path class="st0" d="M103.8,51.2c-0.1-2.9-2.5-5.1-5.4-5c-2.9,0.1-5.1,2.5-5,5.4c0.4,11.6-3.8,22.5-12,30.7
		c-8.1,8.2-19,12.6-30.7,12.3c-20.9-0.5-38.1-16.6-40.2-37.3c-1.2-11.6,2.4-22.8,10-31.5c7.6-8.7,18.2-13.8,29.8-14.2
		c2.9-0.1,5.1-2.5,5-5.4c-0.1-2.9-2.5-5.1-5.4-5c-14.3,0.5-27.8,7-37.2,17.8C3.3,30-1.2,43.9,0.3,58.4c2.6,26,24.2,46,50.3,46.7
		c0.5,0,0.9,0,1.3,0c14,0,27.1-5.4,36.9-15.4C98.8,79.5,104.3,65.5,103.8,51.2"/>
	<path class="st0" d="M88.5,25.8c7.1-0.3,12.7-6.2,12.4-13.4C100.7,5.3,94.7-0.2,87.6,0c-7.1,0.3-12.7,6.2-12.4,13.4
		C75.4,20.5,81.4,26.1,88.5,25.8"/>
	<path class="st0" d="M80.3,50.9C79.7,35.8,67.1,24,52,24.6c-15.1,0.5-26.9,13.2-26.4,28.3C26.1,68,38.8,79.8,53.9,79.3
		C69,78.7,80.8,66,80.3,50.9 M61.7,63.7H44.2v-3.3h17.5V63.7z M61.1,58.2H44.2v-0.6l2.5-0.8V38.5l-2.5-0.8v-0.6h16.3l0.4,7.1
		l-0.6,0.2l-2.4-3.6c-1.1-1.7-1.9-2.3-4-2.4l-2.8-0.1V47h1c1.8,0,2.5-0.7,3.2-2.7l0.4-1.1h0.6v8.9h-0.6l-0.4-1
		c-0.7-2-1.4-2.7-3.2-2.7h-1V57l3.8-0.2c1.7-0.1,2.7-0.8,3.8-2.2l2.5-3.4l0.6,0.1L61.1,58.2z"/>
	<line class="st1" x1="246.1" y1="122.9" x2="246.1" y2="75.6"/>
	<polygon class="st0" points="152.1,93.3 152.1,94.7 153.9,95.4 153.9,96.6 233.8,96.6 233.8,93.3 	"/>
	<polygon class="st0" points="144.6,95.5 146.1,94.8 146.1,93.3 117.6,93.3 117.6,96.6 144.6,96.6 	"/>
	<path class="st2" d="M292.7,103.4h3.6v-0.2h-1v-6.9h0.4c1.4,0,1.7,0.9,1.8,2.1h0.2v-2.3h-6.5v2.3h0.2c0.2-1.1,0.5-2.1,1.8-2.1h0.4
		v6.9h-1V103.4z"/>
	<path class="st2" d="M298.2,103.4h2.8v-0.2h-0.6v-2.8c0-0.5,0.5-1.3,1.1-1.3c0.3,0,0.6,0.1,0.6,0.9v3.3h-0.6v0.2h2.7v-0.2h-0.7
		v-2.9c0-1.1-0.5-1.6-1.5-1.6c-0.7,0-1.4,0.4-1.7,1h0v-3.9c-0.2,0.3-0.8,0.3-1.5,0.3h-0.7v0.2h0.7v6.9h-0.7V103.4z"/>
	<path class="st3" d="M309.3,100.9c0-1.1-1-2.2-2.1-2.2c-1.2,0-2.3,1.1-2.3,2.5c0,1.3,1,2.4,2.3,2.4c1.3,0,1.9-0.8,2.1-1.8h-0.2
		c-0.2,1-0.8,1.6-1.6,1.6c-1,0-1.1-0.8-1.1-1.5v-0.9H309.3z M306.5,100.7v-0.9c0-0.7,0.3-0.9,0.7-0.9c0.5,0,0.7,0.3,0.7,0.9v0.9
		H306.5z"/>
	<path class="st2" d="M313,103.4h6.1v-2.3h-0.2v0.1c0,0.6-0.2,2-2,2h-1.5v-3.6h0.7c0.7,0,1,0.6,1,1.4v0.2h0.2V98h-0.2v0.1
		c0,1-0.4,1.4-1,1.4h-0.7v-3.2h1.2c1.2,0,1.9,0.8,1.9,1.7v0.1h0.2v-2.1H313v0.2h0.8v6.9H313V103.4z"/>
	<path class="st2" d="M323.1,99h0.7v2.7c0,0.7-0.5,1.4-1.1,1.4c-0.5,0-0.6-0.4-0.6-1v-3.6c-0.2,0.3-1,0.3-1.4,0.3h-0.7V99h0.7v2.9
		c0,1.1,0.5,1.6,1.5,1.6c0.7,0,1.4-0.4,1.7-1h0v0.9h2.1v-0.2h-0.7v-4.7c-0.2,0.3-1,0.3-1.4,0.3h-0.7V99z"/>
	<path class="st2" d="M326.3,103.4h3.1v-0.2h-1v-2.7c0-0.8,0.2-1.4,0.9-1.6h0c-0.2,0.2-0.2,0.4-0.2,0.6c0,0.4,0.3,0.7,0.7,0.7
		c0.5,0,0.8-0.4,0.8-0.8c0-0.5-0.3-0.8-0.8-0.8c-0.7,0-1.2,0.5-1.4,1h0v-1.1c-0.2,0.3-1,0.3-1.4,0.3h-0.7V99h0.7v4.2h-0.7V103.4z"/>
	<path class="st3" d="M331.3,101.1c0,1.4,1.1,2.4,2.5,2.4c1.4,0,2.5-1,2.5-2.4c0-1.4-1.1-2.4-2.5-2.4
		C332.4,98.7,331.3,99.7,331.3,101.1 M332.9,100c0-0.8,0.3-1.1,0.9-1.1c0.5,0,0.8,0.3,0.8,1.1v2.2c0,0.8-0.3,1.1-0.8,1.1
		c-0.5,0-0.9-0.3-0.9-1.1V100z"/>
	<path class="st3" d="M336.9,106.1h2.9V106H339v-3.2h0c0.2,0.5,0.6,0.8,1.3,0.8c1,0,2.2-0.9,2.2-2.3c0-1.3-0.8-2.5-2.2-2.5
		c-0.6,0-1,0.3-1.3,0.8h0v-1c-0.2,0.3-0.8,0.3-1.5,0.3h-0.7V99h0.7v7h-0.7V106.1z M341,101.8c0,1-0.3,1.5-0.9,1.5
		c-0.7,0-1.1-0.6-1.1-1.2v-1.8c0-0.6,0.4-1.3,1.1-1.3c0.5,0,0.8,0.5,0.8,1.2V101.8z"/>
	<path class="st3" d="M348,100.9c0-1.1-1.1-2.2-2.1-2.2c-1.2,0-2.3,1.1-2.3,2.5c0,1.3,1,2.4,2.3,2.4c1.3,0,1.9-0.8,2.1-1.8h-0.2
		c-0.2,1-0.8,1.6-1.6,1.6c-1,0-1.1-0.8-1.1-1.5v-0.9H348z M345.1,100.7v-0.9c0-0.7,0.3-0.9,0.7-0.9c0.5,0,0.7,0.3,0.7,0.9v0.9H345.1
		z"/>
	<path class="st3" d="M353.2,100.2c0-1.2-1.1-1.5-2.2-1.5c-1,0-1.8,0.5-1.8,1.1c0,0.4,0.2,0.7,0.7,0.7c0.4,0,0.6-0.3,0.6-0.6
		c0-0.5-0.5-0.5-0.5-0.6c0-0.2,0.6-0.3,0.9-0.3c0.8,0,0.9,0.4,0.9,1v0.9l-1,0.1c-0.9,0.1-2,0.3-2,1.4c0,0.9,0.8,1.3,1.6,1.3
		c0.4,0,1.1-0.2,1.4-0.7c0.2,0.4,0.6,0.7,1,0.7c0.7,0,1.1-0.4,1.1-1h-0.2c0,0.3-0.1,0.6-0.4,0.6c-0.2,0-0.2-0.2-0.2-0.5V100.2z
		 M351.8,102.2c0,0.6-0.3,1-0.8,1c-0.7,0-0.7-0.6-0.7-1.2c0-0.6,0.1-0.9,0.7-1l0.8-0.1V102.2z"/>
	<path class="st2" d="M354.4,103.4h2.8v-0.2h-0.6v-2.8c0-0.5,0.5-1.3,1.1-1.3c0.3,0,0.6,0.1,0.6,0.9v3.3h-0.6v0.2h2.7v-0.2h-0.7
		v-2.9c0-1.1-0.5-1.6-1.5-1.6c-0.7,0-1.4,0.4-1.7,1h0v-1.1c-0.2,0.3-1,0.3-1.4,0.3h-0.7V99h0.7v4.2h-0.7V103.4z"/>
	<polygon class="st2" points="363.9,103.4 367.2,103.4 367.2,103.2 366.4,103.2 366.4,99.6 369,99.6 369,103.2 368.2,103.2 
		368.2,103.4 371.5,103.4 371.5,103.2 370.7,103.2 370.7,96.3 371.5,96.3 371.5,96.1 368.2,96.1 368.2,96.3 369,96.3 369,99.4 
		366.4,99.4 366.4,96.3 367.2,96.3 367.2,96.1 363.9,96.1 363.9,96.3 364.7,96.3 364.7,103.2 363.9,103.2 	"/>
	<path class="st3" d="M372.2,101.1c0,1.4,1.1,2.4,2.5,2.4c1.4,0,2.5-1,2.5-2.4c0-1.4-1.1-2.4-2.5-2.4
		C373.3,98.7,372.2,99.7,372.2,101.1 M373.9,100c0-0.8,0.3-1.1,0.9-1.1c0.5,0,0.9,0.3,0.9,1.1v2.2c0,0.8-0.3,1.1-0.9,1.1
		c-0.5,0-0.9-0.3-0.9-1.1V100z"/>
	<path class="st2" d="M381,99h0.7v2.7c0,0.7-0.5,1.4-1.1,1.4c-0.5,0-0.6-0.4-0.6-1v-3.6c-0.2,0.3-1,0.3-1.4,0.3h-0.7V99h0.7v2.9
		c0,1.1,0.5,1.6,1.5,1.6c0.7,0,1.4-0.4,1.7-1h0v0.9h2.2v-0.2h-0.7v-4.7c-0.2,0.3-1,0.3-1.4,0.3H381V99z"/>
	<path class="st2" d="M384.7,103.5h0.2c0.1-0.2,0.2-0.2,0.4-0.2c0.3,0,0.6,0.2,1.2,0.2c1,0,1.7-0.8,1.7-1.7c0-1.3-0.9-1.4-2-1.5
		c-0.6-0.1-0.9-0.2-0.9-0.6c0-0.5,0.4-0.8,1-0.8c0.8,0,1.2,0.6,1.5,1.3h0.2l-0.1-1.5h-0.1c0,0.1-0.1,0.2-0.3,0.2
		c-0.3,0-0.6-0.2-1.1-0.2c-1,0-1.5,0.9-1.5,1.5c0,1.3,1,1.5,1.8,1.5c0.8,0.1,1.1,0.2,1.1,0.6c0,0.6-0.5,0.9-1,0.9
		c-0.8,0-1.4-0.8-1.6-1.6h-0.2V103.5z"/>
	<path class="st3" d="M393.6,100.9c0-1.1-1-2.2-2.1-2.2c-1.2,0-2.3,1.1-2.3,2.5c0,1.3,1,2.4,2.3,2.4c1.3,0,1.9-0.8,2.1-1.8h-0.2
		c-0.2,1-0.8,1.6-1.6,1.6c-1,0-1.1-0.8-1.1-1.5v-0.9H393.6z M390.8,100.7v-0.9c0-0.7,0.3-0.9,0.7-0.9c0.5,0,0.7,0.3,0.7,0.9v0.9
		H390.8z"/>
	<path class="st3" d="M282.9,112.1c1,1,2.1,2,3.1,3c0.1,0.1,0.2,0.3,0.2,0.4c0,0.3-0.2,0.6-0.6,0.9c-1.4,1.4-2.8,2.8-4.2,4.2
		c-0.1,0.1-0.3,0.2-0.4,0.2c-0.1,0-0.3-0.1-0.4-0.2c-1.5-1.4-3-3-4.6-4.5c-0.2-0.2-0.2-0.5-0.2-0.6c0-0.1,0-0.2,0.1-0.3h3.9
		C279.7,115.3,281.8,113.2,282.9,112.1 M268.5,110.3c0.5,0,4.4,4.1,5,4.8c0.1,0.1,0.2,0.3,0.2,0.4c0,0.3-0.3,0.6-0.6,0.9
		c-1.4,1.3-2.7,2.8-4.1,4.1c-0.1,0.1-0.3,0.2-0.4,0.2c-0.4,0-0.5-0.2-1-0.6c-0.4-0.4-4.3-4-4.3-4.6c0-0.2,0.4-0.7,0.6-0.9
		c1.4-1.3,2.7-2.7,4.1-4C268.1,110.4,268.4,110.3,268.5,110.3 M279.4,104.3c0.3,0,0.5,0.2,0.9,0.6c1.3,1.4,2.8,2.7,4.1,4.1
		c0.1,0.1,0.2,0.3,0.2,0.5c0,0.6-1.4,1.7-1.9,2.3c-1,0.9-2,2-3,2.9c-0.1,0.1-0.2,0.1-0.3,0.1c-0.4,0-0.4-0.1-0.9-0.6
		c-1.4-1.3-2.7-2.7-4-4.1c-0.1-0.1-0.2-0.4-0.2-0.6c0-0.3,0.2-0.5,0.6-0.9c1.4-1.4,2.8-2.9,4.3-4.2
		C279.1,104.3,279.2,104.3,279.4,104.3 M280.8,98c0.3,0,0.5,0.2,0.9,0.6c1.4,1.3,2.8,2.7,4.1,4.1c0.1,0.1,0.2,0.3,0.2,0.4
		c0,0.2-0.2,0.5-0.3,0.6c-0.9,1-1.9,1.9-2.9,2.9c-1-1-2-2-3-2.9c-0.1-0.1-0.2-0.1-0.4-0.1h-3.6c0-0.1-0.1-0.1-0.2-0.2
		c0-0.1-0.1-0.2-0.1-0.3c0-0.3,0.2-0.5,0.6-0.9c1.4-1.3,2.7-2.7,4.1-4C280.3,98.2,280.6,98,280.8,98 M268.5,98
		c0.1,0,0.4,0.1,0.5,0.2c1.5,1.4,3,2.9,4.4,4.4c0.1,0.1,0.3,0.5,0.3,0.6c0,0.3-0.2,0.5-0.6,0.9c-1.4,1.4-2.8,2.8-4.2,4.2
		c-0.1,0.1-0.3,0.2-0.4,0.2c-0.4,0-0.5-0.2-0.9-0.6c-0.5-0.6-4.3-4.1-4.3-4.6c0-0.1,0.4-0.7,0.5-0.9c1.3-1.3,2.7-2.8,4.1-4.1
		C268.1,98.1,268.4,98,268.5,98 M263.9,97.6h4.6c0.2,0,0.5,0.1,0.7,0.3c1.1,1,2.1,2,3.1,3c0.5-0.4,3.1-3.3,3.6-3.3h5
		c0.3,0,0.7,0.5,1,0.8c1.5,1.5,3.1,3,4.4,4.5c0.1,0.1,0.1,0.3,0.1,0.4c0,0.3-0.2,0.6-0.3,0.7c-1,1.1-2.1,2.1-3.1,3.1
		c0.5,0.6,2,1.8,2,2.5c0,0.7-1.2,1.6-1.9,2.3c1,1,2.1,2.1,3.1,3.1c0.1,0.2,0.3,0.5,0.3,0.6c0,0.3-0.5,1-0.6,1
		c-1.4,1.4-2.9,3-4.4,4.4c-0.1,0.1-0.4,0.3-0.7,0.3H276c-0.4,0-3.4-3.1-3.7-3.5c-0.1,0.1-3.1,3.4-3.7,3.4h-4.8c-0.3,0-0.6-0.3-1-0.7
		c-1.5-1.5-3.1-3-4.5-4.5c-0.1-0.1-0.2-0.4-0.2-0.5c0-0.1,0.1-0.6,0.2-0.7c1-1,2-2,3-3c-0.7-0.8-1.9-1.6-1.9-2.3
		c0-0.7,1.5-1.8,2-2.4c-1.1-1.1-2.3-2.2-3.3-3.5c-0.1-0.1-0.1-0.3-0.1-0.4c0-0.5,0.1-0.5,0.6-1.1c1.4-1.5,2.9-2.9,4.3-4.3
		C263.3,97.7,263.7,97.6,263.9,97.6"/>
	<path class="st3" d="M306.5,122.7h2.5v-0.3h-0.4c-0.3,0-0.7-0.1-0.7-0.5c0-0.1,0.1-0.3,0.1-0.4l0.7-2h2.7l1,2.9h-1.1v0.3h4.2v-0.3
		h-0.7l-3.7-9.8h-0.2l-3.2,9c-0.2,0.5-0.4,0.8-1,0.8h-0.2V122.7z M308.9,119.3l1.2-3.5h0l1.2,3.5H308.9z"/>
	<path class="st2" d="M317.5,122.4h-1v0.3h3.6v-0.3h-0.7v-3.8c0-0.6,0.6-1.7,1.5-1.7c0.5,0,0.7,0.4,0.7,1.2v4.3h-0.8v0.3h3.5v-0.3
		h-0.8v-3.8c0-0.6,0.6-1.7,1.5-1.7c0.5,0,0.7,0.4,0.7,1.2v4.3h-0.7v0.3h3.6v-0.3h-1v-3.9c0-1.5-0.6-2.2-1.8-2.2
		c-0.9,0-1.8,0.5-2.2,1.3c-0.3-0.9-1-1.3-1.8-1.3c-0.9,0-1.9,0.5-2.2,1.3h0v-1.5c-0.3,0.4-1.3,0.4-1.9,0.4h-1v0.3h1V122.4z"/>
	<path class="st3" d="M329.2,122.7h1.2c0.4,0,0.8,0,1.1,0c0.3,0,0.5,0.1,0.6,0.1v-1.2h0c0.3,0.8,1.1,1.2,1.9,1.2c2,0,3-2,3-3.2
		c0-2.3-1.7-3.3-3-3.3c-0.8,0-1.4,0.3-1.8,1.1h0v-5.1c-0.3,0.4-1,0.4-2,0.4h-0.9v0.3h1v9.3h-1V122.7z M332.1,118.4
		c0-0.8,0.6-1.8,1.6-1.8c0.7,0,1.2,0.4,1.2,2.3v1.8c0,1.4-0.5,1.9-1.3,1.9c-0.7,0-1.5-0.6-1.5-1.9V118.4z"/>
	<path class="st2" d="M337.3,122.7h4.2v-0.3h-1.3v-3.6c0-1.1,0.3-1.8,1.2-2.2h0.1c-0.2,0.3-0.3,0.5-0.3,0.8c0,0.5,0.4,0.9,1,0.9
		c0.7,0,1.1-0.5,1.1-1c0-0.7-0.5-1.1-1.1-1.1c-0.9,0-1.6,0.6-1.8,1.3h0v-1.4c-0.3,0.4-1.3,0.4-1.9,0.4h-1v0.3h1v5.7h-1V122.7z"/>
	<path class="st3" d="M343.5,119.6c0,1.9,1.5,3.2,3.3,3.2c1.9,0,3.3-1.3,3.3-3.2c0-1.9-1.5-3.2-3.3-3.2
		C344.9,116.3,343.5,117.7,343.5,119.6 M345.6,118.1c0-1.1,0.4-1.5,1.1-1.5c0.7,0,1.1,0.4,1.1,1.5v3c0,1.1-0.4,1.5-1.1,1.5
		c-0.7,0-1.1-0.4-1.1-1.5V118.1z"/>
	<path class="st2" d="M350.9,122.8h0.2c0.1-0.2,0.3-0.3,0.6-0.3c0.4,0,0.8,0.3,1.6,0.3c1.3,0,2.2-1.1,2.2-2.3c0-1.7-1.2-1.8-2.7-2
		c-0.8-0.1-1.3-0.2-1.3-0.9c0-0.7,0.6-1.1,1.3-1.1c1.1,0,1.6,0.8,2,1.7h0.2l-0.1-2h-0.2c0,0.2-0.2,0.3-0.4,0.3
		c-0.4,0-0.8-0.3-1.5-0.3c-1.4,0-2.1,1.2-2.1,2.1c0,1.8,1.4,2,2.4,2.1c1,0.1,1.4,0.2,1.4,0.9c0,0.7-0.6,1.2-1.4,1.2
		c-1.1,0-1.9-1.1-2.2-2.1h-0.2V122.8z"/>
	<path class="st3" d="M362.3,119.3c0-1.5-1.4-3-2.9-2.9c-1.6,0-3.1,1.4-3.1,3.3c0,1.8,1.3,3.2,3.1,3.2c1.7,0,2.6-1.1,2.9-2.5h-0.2
		c-0.3,1.3-1.1,2.1-2.2,2.1c-1.3,0-1.4-1.1-1.4-2v-1.2H362.3z M358.4,119v-1.2c0-0.9,0.4-1.2,0.9-1.2c0.7,0,0.9,0.5,0.9,1.2v1.2
		H358.4z"/>
	<path class="st2" d="M363.5,116.8v4.5c0,1.3,1.2,1.6,1.5,1.6c0.8,0,1.4-0.4,1.9-1.1l-0.2-0.1c-0.2,0.3-0.4,0.6-0.7,0.6
		c-0.4,0-0.5-0.3-0.5-0.7v-4.8h1.3v-0.3h-1.3v-3h-0.3c0,1.5-1,3-2.4,3v0.3H363.5z"/>
	<path class="st2" d="M368.3,116.8v4.5c0,1.3,1.1,1.6,1.5,1.6c0.9,0,1.4-0.4,1.9-1.1l-0.2-0.1c-0.2,0.3-0.4,0.6-0.7,0.6
		c-0.4,0-0.5-0.3-0.5-0.7v-4.8h1.3v-0.3h-1.3v-3H370c0,1.5-1,3-2.4,3v0.3H368.3z"/>
	<path class="st3" d="M372.3,122.7h3.9v-0.3h-1v-6.3c-0.3,0.4-1.3,0.4-1.9,0.4h-1v0.3h1v5.7h-1V122.7z M373.1,114
		c0,0.6,0.5,1.1,1.1,1.1c0.6,0,1.1-0.5,1.1-1.1c0-0.6-0.5-1.1-1.1-1.1C373.6,112.9,373.1,113.4,373.1,114"/>
	<rect x="291.1" y="109" class="st4" width="102.6" height="1"/>
</g>
<g>
	<path class="st5" d="M117.6,32.8h1.3h0c0.4-0.1,0.7-0.2,0.9-0.3c0.2-0.2,0.3-0.5,0.3-1v-0.7V16.5c0-0.8-0.5-1.4-1.2-1.4h-1.3v-0.9
		h8.6v0.9h-1.3h0c-0.3,0.1-0.7,0.2-0.8,0.3c-0.1,0.2-0.3,0.4-0.3,0.6v0.4v15c0,0.8,0.5,1.3,1.2,1.3h1.3v0.9h-8.6V32.8z"/>
	<path class="st5" d="M125,14.2h8.7v1h-1.3c-0.5,0-0.9,0.3-0.9,0.8c0,0.1,0,0.3,0.1,0.6l3.6,12l3.7-12c0.1-0.2,0.1-0.5,0.1-0.6
		c0-0.5-0.4-0.8-0.9-0.8h-1.3v-0.9h6v0.9h-1.3h0c-0.3,0.1-0.6,0.2-0.7,0.3c-0.2,0.2-0.4,0.5-0.6,1l-5.3,17.2h-1.8l-5.5-17.2
		c-0.2-0.5-0.3-0.8-0.5-1c-0.1-0.1-0.3-0.2-0.5-0.2c-0.1-0.1-0.2-0.1-0.3-0.1H125V14.2z"/>
	<path class="st5" d="M148.6,32.8h1.3c0.7,0,1.2-0.5,1.2-1.4V31V16.5c0-0.8-0.4-1.4-1.1-1.4h-1.3v-0.9h14.7l0.3,5.8l-1,0
		c0-0.4-0.1-0.7-0.1-0.9c-0.2-1-0.8-2.1-1.5-2.8c-1-1-1.8-1.3-3.5-1.3h-2.1c-0.5,0-0.7,0.2-0.7,0.9v6.7h1.2c2.2,0,3.2-1.2,3.2-3.6
		v-0.2h0.9v8.5h-0.9v-0.5c0-2.3-1-3.3-3.2-3.3h-1.2v7.9c0,0.5,0.1,0.8,0.3,1c0.1,0.1,0.3,0.2,0.5,0.2c0.1,0.1,0.3,0.1,0.3,0.1h1.3
		v0.9h-8.5V32.8z"/>
	<path class="st5" d="M169.8,19.3c3.8,0,6.2,2.9,6.2,7.3c0,4.5-2.4,7.3-6.2,7.3c-3.8,0-6.2-2.8-6.2-7.3
		C163.7,22.2,166.1,19.3,169.8,19.3z M167.3,26.7c0,4.4,0.7,6.3,2.5,6.3c0.8,0,1.5-0.5,1.9-1.4c0.5-1.1,0.7-2.4,0.7-4.9
		c0-2.5-0.2-3.8-0.7-4.9c-0.4-0.9-1-1.3-1.9-1.3C168,20.4,167.3,22.3,167.3,26.7z"/>
	<path class="st5" d="M176.6,19.8c0.4,0,0.8,0,1,0c0.6,0,1.2,0,1.8-0.1c0.8-0.1,1.3-0.1,2.4-0.3v3.6c0.7-2.2,1.8-3.6,3.1-3.6
		c1.2,0,2,1,2,2.3c0,1.3-0.7,2.2-1.6,2.2c-0.7,0-1.2-0.4-1.3-1.1c0-0.5-0.1-0.6-0.3-0.6c-0.3,0-0.7,0.3-0.9,0.8
		c-0.4,0.7-0.7,1.8-0.8,2.5c0,0.4-0.1,0.9-0.1,1.4v4.4c0,0.8,0.4,1.3,1.2,1.3h0.7v0.9h-7v-0.9h0.7c0.7,0,1.1-0.5,1.1-1.3v-0.8v-8.8
		c0-0.9-0.4-1.3-1.2-1.3h-0.7V19.8z"/>
	<path class="st5" d="M193.5,19.3c3.8,0,6.2,2.9,6.2,7.3c0,4.5-2.4,7.3-6.2,7.3c-3.8,0-6.2-2.8-6.2-7.3
		C187.3,22.2,189.7,19.3,193.5,19.3z M191,26.7c0,4.4,0.7,6.3,2.5,6.3c0.8,0,1.5-0.5,1.9-1.4c0.5-1.1,0.7-2.4,0.7-4.9
		c0-2.5-0.2-3.8-0.7-4.9c-0.4-0.9-1-1.3-1.9-1.3C191.7,20.4,191,22.3,191,26.7z"/>
</g>
<g>
	<path class="st5" d="M117.6,61.2h1.3h0c0.4-0.1,0.7-0.2,0.9-0.3c0.2-0.2,0.3-0.5,0.3-1v-0.7V44.9c0-0.8-0.5-1.4-1.2-1.4h-1.3v-0.9
		h8.6v0.9h-1.3h0c-0.3,0.1-0.7,0.2-0.8,0.3c-0.1,0.2-0.3,0.4-0.3,0.6v0.4v15c0,0.8,0.5,1.3,1.2,1.3h1.3v0.9h-8.6V61.2z"/>
	<path class="st5" d="M126,48.1c0.4,0,0.8,0,1,0c0.6,0,1.2,0,1.8-0.1c0.8-0.1,1.3-0.1,2.4-0.3v2.5c0.3-0.5,0.4-0.7,0.6-1
		c0.8-0.9,2-1.5,3.2-1.5c1.4,0,2.7,0.8,3.3,2c0.2,0.4,0.3,1,0.3,1.7v8.4c0,0.9,0.4,1.4,1.1,1.4h0.7v0.9h-6.9v-0.9h0.7
		c0.7,0,1-0.5,1-1.4v-7.8c0-0.5,0-0.9-0.1-1.2c-0.2-0.7-0.8-1.2-1.5-1.2c-1.2,0-2.3,1.5-2.3,3.4v6.8c0,0.9,0.4,1.4,1.1,1.4h0.7v0.9
		H126v-0.9h0.7c0.7,0,1.1-0.5,1.1-1.4V59v-8.7c0-0.8-0.4-1.3-1.2-1.3H126V48.1z"/>
	<path class="st5" d="M140.1,48.1c0.7-0.2,1-0.3,1.5-0.5c0.8-0.4,1.5-1.1,2.1-1.9c0.4-0.6,0.6-1.1,0.9-2.2h0.9v4.5h2.6v1.1h-2.6
		v10.2c0,0.8,0.3,1.3,0.8,1.3c0.6,0,0.9-0.8,0.9-2.5v-0.3h1.1c0,1.3-0.1,2.4-0.3,3c-0.3,1.1-1.3,1.6-3.1,1.6c-1.9,0-2.8-1-2.8-3.1
		V49.1h-1.9V48.1z"/>
	<path class="st5" d="M152.4,55.4v0.2c0,1.4,0.1,1.9,0.5,2.9c0.7,1.7,1.5,2.4,2.9,2.4c1.8,0,3-1.3,3.4-3.6h1.2
		c-0.1,0.9-0.2,1.3-0.5,1.9c-0.9,2-2.6,3.2-4.8,3.2c-3.5,0-6.1-3.1-6.1-7.2c0-4.1,2.7-7.3,6-7.3c2.3,0,4.1,1.4,4.9,3.6
		c0.4,1.2,0.6,2.3,0.6,4H152.4z M152.5,54.2h4.6v-0.5c0-2.9-0.9-4.8-2.2-4.8C153.4,48.9,152.7,50.5,152.5,54.2z"/>
	<path class="st5" d="M161,48.1c0.4,0,0.8,0,1,0c0.6,0,1.2,0,1.8-0.1c0.8-0.1,1.3-0.1,2.4-0.3v3.6c0.7-2.2,1.8-3.6,3.1-3.6
		c1.2,0,2,1,2,2.3c0,1.3-0.7,2.2-1.6,2.2c-0.7,0-1.2-0.4-1.3-1.1c0-0.5-0.1-0.6-0.3-0.6c-0.3,0-0.7,0.3-0.9,0.8
		c-0.4,0.7-0.7,1.8-0.8,2.5c0,0.4-0.1,0.9-0.1,1.4v4.4c0,0.8,0.4,1.3,1.2,1.3h0.7v0.9h-7v-0.9h0.7c0.7,0,1.1-0.5,1.1-1.3v-0.8v-8.8
		c0-0.9-0.4-1.3-1.2-1.3H161V48.1z"/>
	<path class="st5" d="M170.9,48.1c0.4,0,0.8,0,1,0c0.6,0,1.2,0,1.8-0.1c0.8-0.1,1.3-0.1,2.4-0.3v2.5c0.3-0.5,0.4-0.7,0.6-1
		c0.8-0.9,2-1.5,3.2-1.5c1.4,0,2.7,0.8,3.3,2c0.2,0.4,0.3,1,0.3,1.7v8.4c0,0.9,0.4,1.4,1.1,1.4h0.7v0.9h-6.9v-0.9h0.7
		c0.7,0,1-0.5,1-1.4v-7.8c0-0.5,0-0.9-0.1-1.2c-0.2-0.7-0.8-1.2-1.5-1.2c-1.2,0-2.3,1.5-2.3,3.4v6.8c0,0.9,0.4,1.4,1.1,1.4h0.7v0.9
		h-6.9v-0.9h0.7c0.7,0,1.1-0.5,1.1-1.4V59v-8.7c0-0.8-0.4-1.3-1.2-1.3h-0.7V48.1z"/>
	<path class="st5" d="M193.1,51c0-1.4-0.8-2.2-2.2-2.2c-0.8,0-1.3,0.2-1.7,0.7c-0.1,0.2-0.2,0.3-0.2,0.4c0,0.2,0,0.3,0.2,0.4
		c0.7,0.7,0.8,0.9,0.8,1.5c0,0.9-0.7,1.6-1.7,1.6c-1,0-1.8-0.8-1.8-1.9c0-2.2,2.2-3.8,5.3-3.8c2.8,0,4.7,1.4,4.7,3.6v8.1
		c0,0.6,0.2,1,0.5,1c0.4,0,0.7-0.9,0.7-1.9v-0.4h0.9v0.6c0,0.5,0,0.9-0.1,1.4c-0.5,1.8-1.2,2.4-2.9,2.4c-1.4,0-2.3-0.8-2.5-2.2
		c-1,1.5-2,2.1-3.7,2.1c-2.2,0-3.7-1.5-3.7-3.7c0-2.4,0.9-3.3,4.7-4.6c1.6-0.6,1.9-0.7,2.7-1.2V51z M193.1,54
		c-3,1.5-3.8,2.4-3.8,4.1c0,1.4,0.7,2.2,1.7,2.2c1.2,0,2.1-1.3,2.1-3.2V54z"/>
	<path class="st5" d="M210.1,57.2c-0.4,3.4-2.1,5.2-5,5.2c-3.5,0-5.9-2.9-5.9-7.1c0-4.3,2.7-7.5,6.3-7.5c2.5,0,4.5,1.8,4.5,4
		c0,1.3-0.8,2.2-1.8,2.2c-0.9,0-1.6-0.8-1.6-1.8c0-0.4,0.1-0.7,0.2-0.9L207,51c0.2-0.2,0.3-0.5,0.3-0.7c0-0.8-0.8-1.5-1.8-1.5
		c-1.9,0-2.7,1.9-2.7,6.5c0,3.8,1,5.7,3.1,5.7c1.7,0,2.9-1.4,3.2-3.8H210.1z"/>
	<path class="st5" d="M210.4,48.1c0.4,0,0.8,0,1,0c0.6,0,1.2,0,1.8-0.1c0.8-0.1,1.2-0.1,2.4-0.3v12.1c0,0.8,0.5,1.3,1.2,1.3h0.7v0.9
		h-7v-0.9h0.7c0.7,0,1.2-0.5,1.2-1.4v-0.8v-8.8c0-0.8-0.4-1.3-1.2-1.3h-0.7V48.1z M213.9,42.7c1,0,1.9,1,1.9,2.2
		c0,1.2-0.8,2.1-1.9,2.1c-1,0-1.9-1-1.9-2.1C212,43.7,212.8,42.7,213.9,42.7z"/>
	<path class="st5" d="M224.2,47.7c3.8,0,6.2,2.9,6.2,7.3c0,4.5-2.4,7.3-6.2,7.3c-3.8,0-6.2-2.8-6.2-7.3
		C218,50.6,220.4,47.7,224.2,47.7z M221.7,55c0,4.4,0.7,6.3,2.5,6.3c0.8,0,1.5-0.5,1.9-1.4c0.5-1.1,0.7-2.4,0.7-4.9
		c0-2.5-0.2-3.8-0.7-4.9c-0.4-0.9-1-1.3-1.9-1.3C222.4,48.8,221.7,50.7,221.7,55z"/>
	<path class="st5" d="M231,48.1c0.4,0,0.8,0,1,0c0.6,0,1.2,0,1.8-0.1c0.8-0.1,1.3-0.1,2.4-0.3v2.5c0.3-0.5,0.4-0.7,0.6-1
		c0.8-0.9,2-1.5,3.2-1.5c1.4,0,2.7,0.8,3.3,2c0.2,0.4,0.3,1,0.3,1.7v8.4c0,0.9,0.4,1.4,1.1,1.4h0.7v0.9h-6.9v-0.9h0.7
		c0.7,0,1-0.5,1-1.4v-7.8c0-0.5,0-0.9-0.1-1.2c-0.2-0.7-0.8-1.2-1.5-1.2c-1.2,0-2.3,1.5-2.3,3.4v6.8c0,0.9,0.4,1.4,1.1,1.4h0.7v0.9
		H231v-0.9h0.7c0.7,0,1.1-0.5,1.1-1.4V59v-8.7c0-0.8-0.4-1.3-1.2-1.3H231V48.1z"/>
	<path class="st5" d="M253.2,51c0-1.4-0.8-2.2-2.2-2.2c-0.8,0-1.3,0.2-1.7,0.7c-0.1,0.2-0.2,0.3-0.2,0.4c0,0.2,0,0.3,0.2,0.4
		c0.7,0.7,0.8,0.9,0.8,1.5c0,0.9-0.7,1.6-1.7,1.6c-1,0-1.8-0.8-1.8-1.9c0-2.2,2.2-3.8,5.3-3.8c2.8,0,4.7,1.4,4.7,3.6v8.1
		c0,0.6,0.2,1,0.5,1c0.4,0,0.7-0.9,0.7-1.9v-0.4h0.9v0.6c0,0.5,0,0.9-0.1,1.4c-0.5,1.8-1.2,2.4-2.9,2.4c-1.4,0-2.3-0.8-2.5-2.2
		c-1,1.5-2,2.1-3.7,2.1c-2.2,0-3.7-1.5-3.7-3.7c0-2.4,0.9-3.3,4.7-4.6c1.6-0.6,1.9-0.7,2.7-1.2V51z M253.2,54
		c-3,1.5-3.8,2.4-3.8,4.1c0,1.4,0.7,2.2,1.7,2.2c1.2,0,2.1-1.3,2.1-3.2V54z"/>
	<path class="st5" d="M258.5,61.2h0.7c0.8,0,1.2-0.5,1.2-1.4v-0.7V44.8c0-0.8-0.4-1.3-1.2-1.3h-0.7v-0.8h1c0.6,0,1.1,0,1.8-0.1
		c0.8-0.1,1.2-0.1,2.3-0.3v17.6v0.3c0,0.6,0.5,1,1.2,1h0.7v0.9h-7V61.2z"/>
</g>
<g>
	<path d="M117.6,89.6h1.3c0.7,0,1.2-0.5,1.2-1.3v0v-0.5V73.3c0-0.8-0.5-1.3-1.2-1.3h-1.3V71h15.2l0.4,5.8h-1c0-0.4,0-0.7-0.1-1
		c-0.1-0.9-0.7-2-1.5-2.7c-1-1-2-1.3-3.8-1.3h-2.4c-0.6,0-0.8,0.2-0.8,0.9v6.7h1.2c2.4,0,3.7-1.3,3.7-3.6v-0.2l0.9,0v8.5h-0.9
		c0-0.2,0-0.4,0-0.5c0-0.9-0.4-1.9-0.8-2.5c-0.5-0.5-1.6-0.8-2.8-0.8h-1.2v8.2c0,0.8,0.3,1.1,0.9,1.1h2.4c3.2,0,5.1-1.9,5.5-5.4h0.9
		l-0.5,6.3h-15.2V89.6z"/>
	<path d="M132.9,89.6h0.7c0.8,0,1.5-0.5,2-1.4l2.7-4.3l-2.8-5.3c-0.5-0.8-1-1.4-1.5-1.4h-0.7v-0.8h7.1v0.8h-0.7
		c-0.4,0-0.8,0.2-0.8,0.5c0,0.2,0.1,0.5,0.3,0.8l1.5,2.7l1.6-2.7c0.3-0.4,0.4-0.6,0.4-0.8c0-0.3-0.4-0.5-0.8-0.5h-0.7v-0.8h4.9v0.8
		h-0.7c-0.6,0-1.3,0.5-1.8,1.4l-2.4,3.8l3.1,5.8c0.5,0.8,1,1.4,1.6,1.4h0.7v0.9h-7.2v-0.9h0.7c0.4,0,0.7-0.2,0.7-0.5
		c0-0.2-0.1-0.5-0.3-0.8l-1.7-3.2l-1.9,3.2v0l-0.2,0.3c-0.1,0.1-0.1,0.3-0.1,0.4c0,0.3,0.4,0.6,0.9,0.6h0.7v0.9h-5.2V89.6z"/>
	<path d="M145.8,76.4h5.2v2.1c0.8-1.6,2-2.3,3.5-2.3c2.7,0,4.7,3,4.7,7.1c0,4.4-2.4,7.5-5.6,7.5c-1.2,0-1.9-0.4-2.7-1.4v5.1
		c0,0.8,0.5,1.3,1.2,1.3h0.7v0.8h-7v-0.8h0.7c0.8,0,1.2-0.5,1.2-1.3v-1.7V78.7c0-0.8-0.5-1.3-1.2-1.3h-0.7V76.4z M151,81.7v4.4
		c0,2.1,0.9,3.4,2.3,3.4c1.6,0,2.3-1.9,2.3-5.6c0-2.1-0.2-3.7-0.5-4.6c-0.3-0.7-1-1.3-1.8-1.3C151.9,78.1,151,79.4,151,81.7z"/>
	<path d="M167.8,79.3c0-1.4-0.8-2.2-2.2-2.2c-0.8,0-1.3,0.2-1.7,0.7c-0.1,0.2-0.2,0.3-0.2,0.4c0,0.2,0,0.3,0.2,0.4
		c0.7,0.7,0.8,0.9,0.8,1.5c0,0.9-0.7,1.6-1.7,1.6c-1,0-1.8-0.8-1.8-1.9c0-2.2,2.2-3.8,5.3-3.8c2.8,0,4.7,1.4,4.7,3.6v8.1
		c0,0.6,0.2,1,0.5,1c0.4,0,0.7-0.9,0.7-1.9v-0.4h0.9v0.6c0,0.5,0,0.9-0.1,1.4c-0.5,1.8-1.2,2.4-2.9,2.4c-1.4,0-2.3-0.8-2.5-2.2
		c-1,1.5-2,2.1-3.7,2.1c-2.2,0-3.7-1.5-3.7-3.7c0-2.4,0.9-3.3,4.7-4.6c1.6-0.6,1.9-0.7,2.7-1.2V79.3z M167.8,82.4
		c-3,1.5-3.8,2.4-3.8,4.1c0,1.4,0.7,2.2,1.7,2.2c1.2,0,2.1-1.3,2.1-3.2V82.4z"/>
	<path d="M173.2,76.5c0.4,0,0.8,0,1,0c0.6,0,1.2,0,1.8-0.1c0.8-0.1,1.3-0.1,2.4-0.3v2.5c0.3-0.5,0.4-0.7,0.6-1
		c0.8-0.9,2-1.5,3.2-1.5c1.4,0,2.7,0.8,3.3,2c0.2,0.4,0.3,1,0.3,1.7v8.4c0,0.9,0.4,1.4,1.1,1.4h0.7v0.9h-6.9v-0.9h0.7
		c0.7,0,1-0.5,1-1.4v-7.8c0-0.5,0-0.9-0.1-1.2c-0.2-0.7-0.8-1.2-1.5-1.2c-1.2,0-2.3,1.5-2.3,3.4v6.8c0,0.9,0.4,1.4,1.1,1.4h0.7v0.9
		h-6.9v-0.9h0.7c0.7,0,1.1-0.5,1.1-1.4v-0.9v-8.7c0-0.8-0.4-1.3-1.2-1.3h-0.7V76.5z"/>
	<path d="M197.6,76.4v4.8h-0.9c-0.1-2.4-1.7-4.1-3.9-4.1c-1,0-1.8,0.7-1.8,1.8c0,0.4,0.1,0.7,0.3,1c0.4,0.6,0.9,0.8,2.5,1.4
		c3.5,1.2,4.6,2.4,4.6,4.8c0,2.7-2,4.7-4.6,4.7c-1.2,0-2-0.3-3.4-1.2c-0.3-0.2-0.5-0.2-0.6-0.2c-0.4,0-0.6,0.4-0.6,1.2h-0.9v-6h0.9
		c0.1,0.9,0.1,1.3,0.4,1.8c0.7,2,2.4,3.4,4,3.4c1.3,0,2.2-0.8,2.2-2c0-0.4-0.1-0.7-0.2-0.9c-0.3-0.6-0.8-0.9-2.8-1.6
		c-3.3-1.2-4.6-2.5-4.6-4.8c0-2.4,1.8-4.2,4.3-4.2c1.1,0,1.5,0.1,3.2,0.9c0.2,0.1,0.4,0.2,0.5,0.2c0.3,0,0.5-0.3,0.5-0.6
		c0-0.1,0-0.1,0-0.1H197.6z"/>
	<path d="M198.9,76.5c0.4,0,0.8,0,1,0c0.6,0,1.2,0,1.8-0.1c0.8-0.1,1.2-0.1,2.4-0.3v12.1c0,0.8,0.5,1.3,1.2,1.3h0.7v0.9h-7v-0.9h0.7
		c0.7,0,1.2-0.5,1.2-1.4v-0.8v-8.8c0-0.8-0.4-1.3-1.2-1.3h-0.7V76.5z M202.4,71.1c1,0,1.9,1,1.9,2.2c0,1.2-0.8,2.1-1.9,2.1
		c-1,0-1.9-1-1.9-2.1C200.5,72,201.4,71.1,202.4,71.1z"/>
	<path d="M212.7,76.1c3.8,0,6.2,2.9,6.2,7.3c0,4.5-2.4,7.3-6.2,7.3c-3.8,0-6.2-2.8-6.2-7.3C206.6,79,209,76.1,212.7,76.1z
		 M210.2,83.4c0,4.4,0.7,6.3,2.5,6.3c0.8,0,1.5-0.5,1.9-1.4c0.5-1.1,0.7-2.4,0.7-4.9c0-2.5-0.2-3.8-0.7-4.9c-0.4-0.9-1-1.3-1.9-1.3
		C211,77.2,210.2,79,210.2,83.4z M212.8,72.7l0.5-1.3c0.1-0.3,0.2-0.3,0.5-0.3h2.2c0.3,0,0.5,0.2,0.5,0.4c0,0.2,0,0.3-0.1,0.4
		c-0.1,0.2-0.2,0.2-1,0.9c-0.6,0.5-1.5,1.3-2.7,2.3h-1C212.2,74,212.5,73.4,212.8,72.7z"/>
	<path d="M219.6,76.5c0.4,0,0.8,0,1,0c0.6,0,1.2,0,1.8-0.1c0.8-0.1,1.3-0.1,2.4-0.3v2.5c0.3-0.5,0.4-0.7,0.6-1
		c0.8-0.9,2-1.5,3.2-1.5c1.4,0,2.7,0.8,3.3,2c0.2,0.4,0.3,1,0.3,1.7v8.4c0,0.9,0.4,1.4,1.1,1.4h0.7v0.9H227v-0.9h0.7
		c0.7,0,1-0.5,1-1.4v-7.8c0-0.5,0-0.9-0.1-1.2c-0.2-0.7-0.8-1.2-1.5-1.2c-1.2,0-2.3,1.5-2.3,3.4v6.8c0,0.9,0.4,1.4,1.1,1.4h0.7v0.9
		h-6.9v-0.9h0.7c0.7,0,1.1-0.5,1.1-1.4v-0.9v-8.7c0-0.8-0.4-1.3-1.2-1.3h-0.7V76.5z"/>
</g>
</svg>
