<?xml version="1.0" encoding="utf-8"?>
<!-- Generator: Adobe Illustrator 24.2.3, SVG Export Plug-In . SVG Version: 6.00 Build 0)  -->
<svg version="1.1" id="Capa_1" xmlns="http://www.w3.org/2000/svg" xmlns:xlink="http://www.w3.org/1999/xlink" x="0px" y="0px"
	 viewBox="0 0 975.7 247.3" style="enable-background:new 0 0 975.7 247.3;" xml:space="preserve">
<style type="text/css">
	.st0{fill:#F0AB02;}
	.st1{fill:#831453;}
</style>
<path class="st0" d="M835.2,92.2c0.7,2.6,1,4.5,1.7,6.1c8,17.8,19.4,33.3,32.8,47.3c1.7,1.7,3.9,3,6,4.1c3.8,1.9,6.3,0.7,6.5-3.5
	c0.3-6.6-0.1-13.3-0.3-19.9c-0.1-4-0.5-8.1-0.7-12.7c7.3,3.2,14,6.1,20.6,9.1c0.8,0.4,1.5,2,1.4,2.8c-1.4,8.2-2.9,16.3-4.6,24.4
	c-0.4,1.8-1.3,3.6-2.2,5.2c-3.8,6.8-9.7,9.3-16.8,6.2c-4.5-2-9.1-4.7-12.6-8.1c-16.2-15.9-29.5-34.1-39.5-54.6
	c-1.4-2.9-2.3-6.1-2.7-9.3c-0.6-4.8,1.7-7.9,6.4-8.2c5.4-0.4,10.9,0,16.2,0.8c34.3,5.4,67.2,15.6,99.2,28.7
	c5.9,2.4,11.4,6.4,16.2,10.7c7.5,6.7,8.6,15.6,2.9,23.9c-3.9,5.6-8.7,11.1-14.2,14.9c-19.3,13.4-39.1,26.1-58.7,39.1
	c-8.4,5.6-16.6,11.3-24.9,17c0.1,0.5,0.3,0.9,0.4,1.4c19-1.3,38-2.5,57-3.8c0.1-0.5,0.3-1.1,0.4-1.6c-7.8-5.3-15.5-10.6-23.3-15.9
	c5-4.6,5.1-4.6,10.4-1.6c7,4,13.9,8,20.8,12.1c2,1.2,3.9,2.6,5.4,4.3c3,3.3,3,7.1-0.4,10c-2.5,2.2-5.5,4.2-8.6,5.3
	c-26.3,9.3-53.3,15.4-81.2,16.1c-5.3,0.1-11-1.7-16.1-3.7c-6.2-2.5-8.3-8.2-7.1-14.8c1.8-9.4,8.1-15.9,14.5-22.1
	c15.4-15,34-25.7,52.1-37c11-6.8,21.9-13.7,32.4-21.1c8-5.7,7.9-8.8-1.1-13.1c-18.9-9-38-17.4-57.2-25.8
	C856.6,100.5,846.3,96.6,835.2,92.2z"/>
<path class="st0" d="M904.2,92.6c-8.1-2.2-15.9-4.3-23.7-6.7c-1-0.3-1.8-2.4-2-3.8c-1.2-9.3-2.2-18.6-3.3-27.9
	c-0.1-0.9-0.3-1.9-0.6-2.8c-1.3-4-3.3-4.9-6.5-2.2c-4.9,4-9.5,8.5-14.1,12.9c-3.1,3-6.2,6.2-9.1,9.3c-3.5,3.8-7,6.7-12.9,7.1
	c-7.5,0.4-10.3,5.3-9.6,12.8c0.1,1.4-0.7,3.4-1.8,4.4c-7.1,7.1-14.4,14-21.7,21c-8.3,7.9-8.4,10.2,1.5,15.9
	c23.1,13.2,46.5,26,69.7,39c1,0.6,2.1,1.2,3.1,1.8c-3.4,3.7-6.4,4.1-11,1.7c-25.1-13.3-50.4-26.2-75.6-39.1c-11.7-6-14-11.1-7-22.3
	c8.6-13.6,18.1-26.8,28.1-39.4c14.4-18.2,29.4-36,46.9-51.5c4.6-4.1,9.7-8,15.1-11c11.4-6.4,22.1-2.8,26.3,9.5
	c3.2,9.5,5.2,19.7,6.3,29.7c1.4,12.8,1.4,25.8,2,38.7C904.5,90.5,904.3,91.5,904.2,92.6z"/>
<path class="st1" d="M96.2,239.9c-4.7,0-8.8,0.2-12.8-0.1c-1-0.1-2.4-1.5-2.8-2.6c-3.1-8.4-6.2-16.8-9-25.3
	c-0.9-2.5-1.9-3.6-4.8-3.6c-10.9,0.2-21.8,0.2-32.6,0c-2.7,0-3.7,0.9-4.6,3.4c-2.9,8.5-6.2,16.8-9.1,25.3c-0.8,2.4-2,3.2-4.4,3.1
	c-3.6-0.2-7.3,0-11.6,0c1.5-4,2.8-7.5,4.1-11c11.3-29.7,22.7-59.4,33.8-89.1c1.1-3,2.6-4.1,5.8-4c10.3,0.2,10.3,0.1,13.7,9.5
	c10.9,30,21.8,60,32.7,90C95.1,236.6,95.5,237.9,96.2,239.9z M66,196.2c-5-14.2-9.7-27.7-14.5-41.2c-0.3,0-0.6,0.1-0.9,0.1
	c-5,13.6-10,27.2-15.1,41.1C45.9,196.2,55.6,196.2,66,196.2z"/>
<path class="st1" d="M412.9,136.2c0.5,7.1,0.6,13.3-4.3,19.6c-17.2,22.1-33.8,44.7-50.6,67.1c-0.9,1.2-1.7,2.4-3,4.2
	c20.1,0,39.7,0,59.6,0c0,4.4,0,8.3,0,12.5c-25.3,0-50.5,0-76,0c-0.2-6.8-0.9-13,4.1-19.4c17.4-21.8,34-44.2,50.9-66.4
	c1-1.3,1.9-2.6,3.4-4.6c-19.8,0-38.9,0-58.3,0c0-4.6,0-8.7,0-13C363.3,136.2,387.9,136.2,412.9,136.2z"/>
<path class="st1" d="M267,173c5.1-10,13.7-14.4,24.2-14.8c6-0.2,12.3,0.6,18,2.2c10.9,3,16.6,10.6,17,21.8
	c0.5,12.8,0.4,25.6,0.8,38.3c0.2,6.3,0.8,12.7,1.2,19.7c-3.7,0-7.6,0.1-11.4-0.1c-0.7,0-1.8-1.4-2-2.3c-0.6-2.6-0.9-5.3-1.3-8.5
	c-1.1,1-2,1.7-2.9,2.5c-9.9,9.4-21.6,11.6-34.4,7.7c-9.5-2.9-15.1-10.3-15.7-19.7c-0.6-8.9,4.1-17.6,13.3-20.9
	c8.1-2.9,16.8-4.2,25.3-5.8c4.4-0.8,8.9-0.8,13.3-1.2c2.2-10-1.6-19.5-9-22.4c-9.9-3.8-19.2-0.6-24.4,8.8c-3.3-1.4-6.7-2.7-10.1-4.2
	C268.3,173.9,267.8,173.5,267,173z M313.5,200.5c-6.8,1.2-12.4,2-18,3.1c-3.5,0.7-6.9,1.6-10.2,2.8c-1.9,0.6-3.7,1.7-5.3,2.9
	c-7,5.4-5.8,15.3,2.2,19c11.3,5.2,26.1-1,29.6-12.9C313.1,211,312.9,206.1,313.5,200.5z"/>
<path class="st1" d="M786.6,240.2c-3.7,0-7.4,0.2-11-0.1c-0.9-0.1-2.2-1.4-2.4-2.3c-0.7-2.6-0.8-5.3-1.3-8.6c-1.6,1.5-3,2.7-4.3,3.9
	c-9.8,8.6-24.4,10.7-35.9,5.2c-7.7-3.7-12.3-9.6-12.7-18.4c-0.4-9.2,3.7-16,11.6-20.4c8.3-4.5,17.5-5.5,26.7-6.4
	c4.4-0.4,8.9-0.7,13.3-1.1c2.2-10.3-1.6-19.6-9-22.4c-9.9-3.8-19.3-0.5-24.4,8.8c-3.8-1.6-7.7-3.2-11.8-4.9
	c2.2-5.7,6.1-9.6,11.2-11.9c13.1-5.9,26.1-5.1,38.3,2.2c7.8,4.6,9.7,12.8,9.9,21.2c0.3,11.7,0.2,23.4,0.5,35.1
	C785.4,226.5,786.1,233,786.6,240.2z M771.8,200.1c-9.9,2.2-18.6,3.9-27.1,6c-2.3,0.6-4.6,1.8-6.5,3.2c-7,5.2-5.9,15.2,2.1,19
	c11.1,5.3,26.2-0.9,29.7-12.6C771.3,211.1,771.2,206.1,771.8,200.1z"/>
<path class="st1" d="M490.6,201.9c-19.5,0-38.1,0-56.6,0c-3.5,17.6,11.6,32.9,28.2,28.5c3.2-0.9,6.5-3,8.8-5.4c2.3-2.3,4.1-2.9,7-2
	c2.6,0.8,5.3,1.1,8.4,1.7c-4.8,8.5-11.7,13.5-20.7,15.6c-25.5,5.7-45.2-9.3-46.3-35.9c-0.3-7.2,0.3-14.8,2.3-21.7
	c4.7-16.3,18.9-25.7,35.9-24.8c15.5,0.8,27.3,11.2,30.9,27.7C489.6,190.8,489.9,196.1,490.6,201.9z M475.2,192
	c-0.8-16.2-9.1-24.6-22.7-23.6c-10.5,0.8-19.2,12-18.1,23.6C447.9,192,461.4,192,475.2,192z"/>
<path class="st1" d="M637,224.8c-5.5,9-12.9,14.1-22.6,15.9c-15.8,3-30.9-2.2-37.8-14.6c-9.4-16.9-9.9-34.7-0.5-51.8
	c6.5-12,21.3-18.3,35-16.1c14.4,2.2,24.5,11.7,27.8,26.7c1.2,5.4,1.5,11,2.3,17c-19.4,0-38.1,0-56.7,0c-2.5,18.6,11.5,32.8,28,28.6
	c3.5-0.9,6.8-3.4,9.5-5.8c1.8-1.6,3-2.6,5.5-1.8C630.4,223.7,633.5,224.1,637,224.8z M584.5,191.9c13.9,0,27.6,0,41.3,0
	c-0.5-14.5-8-23.3-19.8-23.6C593.7,168,585.9,176.6,584.5,191.9z"/>
<path class="st1" d="M510.9,239.7c-4.5,0-8.6,0-13.1,0c0-26.2,0-52.2,0-78.5c4.3,0,8.4,0,13,0c0,3.3,0,6.5,0,10.6
	c1.3-1.5,2-2.2,2.7-3c10.5-12.7,31-13.5,42.4-1.7c3.7,3.9,6.2,8.5,6.3,13.8c0.2,19.4,0.1,38.9,0.1,58.6c-3.9,0-8.2,0-13,0
	c0-1.6,0-3,0-4.4c0-15,0-29.9,0-44.9c0-11.3-5.2-17.6-15.1-18.5c-11.4-1-20.9,5.6-22.7,15.9c-0.4,2.1-0.5,4.3-0.6,6.5
	c0,13.6,0,27.2,0,40.8C510.9,236.5,510.9,237.9,510.9,239.7z"/>
<path class="st1" d="M98.5,224.6c4.6-0.8,8.4-1.7,12.3-2.1c1-0.1,2.7,0.6,3.3,1.5c6.1,8.7,25.5,8,31.8,3.4
	c6.4-4.7,6.6-13.9-0.5-17.6c-5.6-2.9-11.9-4.3-18-6.1c-4.8-1.5-9.8-2.3-14.4-4.2c-13.4-5.4-16.9-21.8-7.3-32.6
	c12-13.5,42-11.6,52.1,3.3c0.6,0.9,1.1,1.9,1.8,3c-4.1,1.7-8.1,3.4-12.2,5.1c-5-7.2-11.7-10.7-20.3-9.8c-2.6,0.3-5.4,1.1-7.7,2.4
	c-7.6,4.4-7.7,12.9,0.2,16.6c5.6,2.6,11.9,3.6,17.8,5.5c5.1,1.6,10.3,2.8,15.1,4.9c16.7,7.5,14.5,26.7,4.5,35
	c-9.7,8.2-21.2,9.1-33.1,7.7c-9.1-1-17.1-4.3-22.7-12C100.3,227.6,99.7,226.4,98.5,224.6z"/>
<path class="st1" d="M715.5,173.6c-4.7,1.9-8.5,3.6-12.7,5.3c-3.1-5.5-7.3-9.4-13.6-10.6c-11-2.1-19.9,2.2-24.2,12.5
	c-4.9,11.9-5.2,24.1-0.4,36.1c4.4,11,15.6,16.3,27,13.3c4.5-1.2,6.9-3,12-9.4c3.7,1.5,7.4,3.1,11.5,4.8
	c-6.1,9.6-14.7,14.5-25.6,15.5c-34,2.9-45.3-23.8-42.8-46.8c1.2-11.4,5.2-21.7,14.5-29.1c13.3-10.6,36.2-9.7,48.7,1.8
	C711.8,168.9,713.3,171.1,715.5,173.6z"/>
<path class="st1" d="M207.8,228.3c0,3.8,0,7.2,0,11.7c-6.4,0-12.7,0.6-19,0c-6.1-0.7-8.8-4.4-8.9-11.2c-0.1-15.1-0.1-30.2-0.1-45.3
	c0-3.5,0-7,0-11.1c-4.2,0-8.1,0-12.2,0c0-4,0-7.4,0-11.3c4,0,7.9,0,12.2,0c0-5.7,0.1-11,0-16.2c-0.1-2.2,0.6-3.4,2.8-4.2
	c3.5-1.2,7-2.8,11-4.5c0,8.5,0,16.4,0,24.8c4.8,0,9.3,0,14,0c0,3.9,0,7.3,0,11.2c-4.4,0-8.9,0-13.2,0c-0.3,0.8-0.6,1.2-0.6,1.5
	c0,16.5-0.1,32.9,0,49.4c0.1,6.1,2.4,7.7,8.3,6.7C203.9,229.3,205.6,228.8,207.8,228.3z"/>
<path class="st1" d="M233.2,239.7c-4.7,0-8.8,0-13.2,0c0-26.2,0-52.2,0-78.4c4.3,0,8.4,0,12.9,0c0,3.7,0,7.4,0,11.2
	c0.2,0.2,0.5,0.5,0.7,0.7c6.2-9.3,14.9-13.5,26.1-13.4c0,4.5,0,8.9,0,13.6c-1.6,0.1-3.2,0.2-4.7,0.4c-15.4,1.7-21.8,8.8-21.9,24.4
	c0,12.2,0,24.5,0,36.7C233.2,236.3,233.2,237.7,233.2,239.7z"/>
<path class="st0" d="M4187.5,337.7c0.7,2.6,1,4.5,1.7,6.1c8,17.8,19.4,33.3,32.8,47.3c1.7,1.7,3.9,3,6,4.1c3.8,1.9,6.3,0.7,6.5-3.5
	c0.3-6.6-0.1-13.3-0.3-19.9c-0.1-4-0.5-8.1-0.7-12.7c7.3,3.2,14,6.1,20.6,9.1c0.8,0.4,1.5,2,1.4,2.8c-1.4,8.2-2.9,16.3-4.6,24.4
	c-0.4,1.8-1.3,3.6-2.2,5.2c-3.8,6.8-9.7,9.3-16.8,6.2c-4.5-2-9.1-4.7-12.6-8.1c-16.2-15.9-29.5-34.1-39.5-54.6
	c-1.4-2.9-2.3-6.1-2.7-9.3c-0.6-4.8,1.7-7.9,6.4-8.2c5.4-0.4,10.9,0,16.2,0.8c34.3,5.4,67.2,15.6,99.2,28.7
	c5.9,2.4,11.4,6.4,16.2,10.7c7.5,6.7,8.6,15.6,2.9,23.9c-3.9,5.6-8.7,11.1-14.2,14.9c-19.3,13.4-39.1,26.1-58.7,39.1
	c-8.4,5.6-16.6,11.3-24.9,17c0.1,0.5,0.3,0.9,0.4,1.4c19-1.3,38-2.5,57-3.8c0.1-0.5,0.3-1.1,0.4-1.6c-7.8-5.3-15.5-10.6-23.3-15.9
	c5-4.6,5.1-4.6,10.4-1.6c7,4,13.9,8,20.8,12.1c2,1.2,3.9,2.6,5.4,4.3c3,3.3,3,7.1-0.4,10c-2.5,2.2-5.5,4.2-8.6,5.3
	c-26.3,9.3-53.3,15.4-81.2,16.1c-5.3,0.1-11-1.7-16.1-3.7c-6.2-2.5-8.4-8.2-7.1-14.8c1.8-9.4,8.1-15.9,14.5-22.1
	c15.4-15,34-25.7,52.1-37c11-6.8,21.9-13.7,32.4-21.1c8-5.7,7.9-8.8-1.1-13.1c-18.9-9-38-17.4-57.2-25.8
	C4208.8,346,4198.5,342.2,4187.5,337.7z"/>
<path class="st0" d="M4256.4,338.1c-8.1-2.2-15.9-4.3-23.7-6.7c-1-0.3-1.8-2.4-2-3.8c-1.2-9.3-2.2-18.6-3.3-27.9
	c-0.1-0.9-0.3-1.9-0.6-2.8c-1.3-4-3.3-4.9-6.5-2.2c-4.9,4-9.5,8.5-14.1,12.9c-3.1,3-6.2,6.2-9.1,9.3c-3.5,3.8-7,6.7-12.9,7.1
	c-7.5,0.4-10.3,5.3-9.6,12.8c0.1,1.4-0.7,3.4-1.8,4.4c-7.1,7.1-14.4,14-21.7,21c-8.3,7.9-8.4,10.2,1.5,15.9
	c23.1,13.2,46.5,26,69.7,39c1,0.6,2.1,1.2,3.1,1.8c-3.4,3.7-6.4,4.1-11,1.7c-25.1-13.3-50.4-26.2-75.6-39.1c-11.7-6-14-11.1-7-22.3
	c8.6-13.6,18.1-26.8,28.1-39.4c14.4-18.2,29.4-36,46.9-51.5c4.6-4.1,9.7-8,15.1-11c11.4-6.4,22.1-2.8,26.3,9.5
	c3.2,9.5,5.2,19.7,6.3,29.7c1.4,12.8,1.4,25.8,2,38.7C4256.7,336.1,4256.5,337,4256.4,338.1z"/>
<path class="st1" d="M3448.5,485.4c-4.7,0-8.8,0.2-12.8-0.1c-1-0.1-2.4-1.5-2.8-2.6c-3.1-8.4-6.2-16.8-9-25.3
	c-0.9-2.5-1.9-3.6-4.8-3.6c-10.9,0.2-21.8,0.2-32.6,0c-2.7,0-3.7,0.9-4.6,3.4c-2.9,8.5-6.2,16.8-9.1,25.3c-0.8,2.4-2,3.2-4.4,3.1
	c-3.6-0.2-7.3,0-11.6,0c1.5-4,2.8-7.5,4.1-11c11.3-29.7,22.7-59.4,33.8-89.1c1.1-3,2.6-4.1,5.8-4c10.3,0.2,10.3,0.1,13.7,9.5
	c10.9,30,21.8,60,32.7,90C3447.3,482.2,3447.8,483.4,3448.5,485.4z M3418.2,441.7c-5-14.2-9.7-27.7-14.5-41.2
	c-0.3,0-0.6,0.1-0.9,0.1c-5,13.6-10,27.2-15.1,41.1C3398.1,441.7,3407.9,441.7,3418.2,441.7z"/>
<path class="st1" d="M3765.2,381.7c0.5,7.1,0.6,13.3-4.3,19.6c-17.2,22.1-33.8,44.7-50.6,67.1c-0.9,1.2-1.7,2.4-3,4.2
	c20.1,0,39.7,0,59.6,0c0,4.4,0,8.3,0,12.5c-25.3,0-50.5,0-76,0c-0.2-6.8-0.9-13,4.1-19.4c17.4-21.8,34-44.2,50.9-66.4
	c1-1.3,1.9-2.6,3.4-4.6c-19.8,0-38.9,0-58.3,0c0-4.6,0-8.7,0-13C3715.6,381.7,3740.1,381.7,3765.2,381.7z"/>
<path class="st1" d="M3619.3,418.5c5.1-10,13.7-14.4,24.2-14.8c6-0.2,12.3,0.6,18,2.2c10.9,3,16.6,10.6,17,21.8
	c0.5,12.8,0.4,25.6,0.8,38.3c0.2,6.3,0.8,12.7,1.2,19.7c-3.7,0-7.6,0.1-11.4-0.1c-0.7,0-1.8-1.4-2-2.3c-0.6-2.6-0.9-5.3-1.3-8.5
	c-1.1,1-2,1.7-2.9,2.5c-9.9,9.4-21.6,11.6-34.4,7.7c-9.5-2.9-15.1-10.3-15.7-19.7c-0.6-8.9,4.1-17.6,13.3-20.9
	c8.1-2.9,16.8-4.2,25.3-5.8c4.4-0.8,8.9-0.8,13.3-1.2c2.2-10-1.6-19.5-9-22.4c-9.9-3.8-19.2-0.6-24.4,8.8c-3.3-1.4-6.7-2.7-10.1-4.2
	C3620.6,419.4,3620,419,3619.3,418.5z M3665.7,446c-6.8,1.2-12.4,2-18,3.1c-3.5,0.7-6.9,1.6-10.2,2.8c-1.9,0.6-3.7,1.7-5.3,2.9
	c-7,5.4-5.8,15.3,2.2,19c11.3,5.2,26.1-1,29.6-12.9C3665.3,456.5,3665.1,451.7,3665.7,446z"/>
<path class="st1" d="M4138.8,485.7c-3.7,0-7.4,0.2-11-0.1c-0.9-0.1-2.2-1.4-2.4-2.3c-0.7-2.6-0.8-5.3-1.3-8.6
	c-1.6,1.5-3,2.7-4.3,3.9c-9.8,8.6-24.4,10.7-35.9,5.2c-7.7-3.7-12.3-9.6-12.7-18.4c-0.4-9.2,3.7-16,11.6-20.4
	c8.3-4.5,17.5-5.5,26.7-6.4c4.4-0.4,8.9-0.7,13.3-1.1c2.2-10.3-1.6-19.6-9-22.4c-9.9-3.8-19.3-0.5-24.4,8.8
	c-3.8-1.6-7.7-3.2-11.8-4.9c2.2-5.7,6.1-9.6,11.2-11.9c13.1-5.9,26.1-5.1,38.3,2.2c7.8,4.6,9.7,12.8,9.9,21.2
	c0.3,11.7,0.2,23.4,0.5,35.1C4137.7,472,4138.3,478.5,4138.8,485.7z M4124.1,445.6c-9.9,2.2-18.6,3.9-27.1,6
	c-2.3,0.6-4.6,1.8-6.5,3.2c-7,5.2-5.9,15.2,2.1,19c11.1,5.3,26.2-0.9,29.7-12.6C4123.6,456.6,4123.4,451.6,4124.1,445.6z"/>
<path class="st1" d="M3842.8,447.5c-19.5,0-38.1,0-56.6,0c-3.5,17.6,11.6,32.9,28.2,28.5c3.2-0.9,6.5-3,8.8-5.4c2.3-2.3,4.1-2.9,7-2
	c2.6,0.8,5.3,1.1,8.4,1.7c-4.8,8.5-11.7,13.5-20.7,15.6c-25.5,5.7-45.2-9.3-46.3-35.9c-0.3-7.2,0.3-14.8,2.3-21.7
	c4.7-16.3,18.9-25.7,35.9-24.8c15.5,0.8,27.3,11.2,30.9,27.7C3841.9,436.3,3842.1,441.6,3842.8,447.5z M3827.4,437.5
	c-0.8-16.2-9.1-24.6-22.7-23.6c-10.5,0.8-19.2,12-18.1,23.6C3800.2,437.5,3813.7,437.5,3827.4,437.5z"/>
<path class="st1" d="M3989.3,470.3c-5.5,9-12.9,14.1-22.6,15.9c-15.8,3-30.9-2.2-37.8-14.6c-9.4-16.9-9.9-34.7-0.5-51.8
	c6.5-12,21.3-18.3,35-16.1c14.4,2.2,24.5,11.7,27.8,26.7c1.2,5.4,1.5,11,2.3,17c-19.4,0-38.1,0-56.7,0c-2.5,18.6,11.5,32.8,28,28.6
	c3.5-0.9,6.8-3.4,9.5-5.8c1.8-1.6,3-2.6,5.5-1.8C3982.7,469.2,3985.8,469.6,3989.3,470.3z M3936.7,437.4c13.9,0,27.6,0,41.3,0
	c-0.5-14.5-8-23.3-19.8-23.6C3945.9,413.6,3938.1,422.1,3936.7,437.4z"/>
<path class="st1" d="M3863.2,485.2c-4.5,0-8.6,0-13.1,0c0-26.2,0-52.2,0-78.5c4.3,0,8.4,0,13,0c0,3.3,0,6.5,0,10.6
	c1.3-1.5,2-2.2,2.7-3c10.5-12.7,31-13.5,42.4-1.7c3.7,3.9,6.2,8.5,6.3,13.8c0.2,19.4,0.1,38.9,0.1,58.6c-3.9,0-8.2,0-13,0
	c0-1.6,0-3,0-4.4c0-15,0-29.9,0-44.9c0-11.3-5.2-17.6-15.1-18.5c-11.4-1-20.9,5.6-22.7,15.9c-0.4,2.1-0.5,4.3-0.6,6.5
	c0,13.6,0,27.2,0,40.8C3863.2,482,3863.2,483.5,3863.2,485.2z"/>
<path class="st1" d="M3450.8,470.1c4.6-0.8,8.4-1.7,12.3-2.1c1-0.1,2.7,0.6,3.3,1.5c6.1,8.7,25.5,8,31.8,3.4
	c6.4-4.7,6.6-13.9-0.5-17.6c-5.6-2.9-11.9-4.3-18-6.1c-4.8-1.5-9.8-2.3-14.4-4.2c-13.4-5.4-16.9-21.8-7.3-32.6
	c12-13.5,42-11.6,52.1,3.3c0.6,0.9,1.1,1.9,1.8,3c-4.1,1.7-8.1,3.4-12.2,5.1c-5-7.2-11.7-10.7-20.3-9.8c-2.6,0.3-5.4,1.1-7.7,2.4
	c-7.6,4.4-7.7,12.9,0.2,16.6c5.6,2.6,11.9,3.6,17.8,5.5c5.1,1.6,10.3,2.8,15.1,4.9c16.7,7.5,14.5,26.7,4.5,35
	c-9.7,8.2-21.2,9.1-33.1,7.7c-9.1-1-17.1-4.3-22.7-12C3452.6,473.1,3451.9,471.9,3450.8,470.1z"/>
<path class="st1" d="M4067.7,419.1c-4.7,1.9-8.5,3.6-12.7,5.3c-3.1-5.5-7.3-9.4-13.6-10.6c-11-2.1-19.9,2.2-24.2,12.5
	c-4.9,11.9-5.2,24.1-0.4,36.1c4.4,11,15.6,16.3,27,13.3c4.5-1.2,6.9-3,12-9.4c3.7,1.5,7.4,3.1,11.5,4.8
	c-6.1,9.6-14.7,14.5-25.6,15.5c-34,2.9-45.3-23.8-42.8-46.8c1.2-11.4,5.2-21.7,14.5-29.1c13.3-10.6,36.2-9.7,48.7,1.8
	C4064,414.4,4065.6,416.6,4067.7,419.1z"/>
<path class="st1" d="M3560,473.8c0,3.8,0,7.2,0,11.7c-6.4,0-12.7,0.6-19,0c-6.1-0.7-8.8-4.4-8.9-11.2c-0.1-15.1-0.1-30.2-0.1-45.3
	c0-3.5,0-7,0-11.1c-4.2,0-8.1,0-12.2,0c0-4,0-7.4,0-11.3c4,0,7.9,0,12.2,0c0-5.7,0.1-11,0-16.2c-0.1-2.2,0.6-3.4,2.8-4.2
	c3.6-1.2,7-2.8,11-4.5c0,8.5,0,16.4,0,24.8c4.8,0,9.3,0,14,0c0,3.9,0,7.3,0,11.2c-4.4,0-8.9,0-13.2,0c-0.3,0.8-0.6,1.2-0.6,1.5
	c0,16.5-0.1,32.9,0,49.4c0.1,6.1,2.4,7.7,8.3,6.7C3556.2,474.8,3557.9,474.3,3560,473.8z"/>
<path class="st1" d="M3585.5,485.2c-4.7,0-8.8,0-13.2,0c0-26.2,0-52.2,0-78.4c4.3,0,8.4,0,12.9,0c0,3.7,0,7.4,0,11.2
	c0.2,0.2,0.5,0.5,0.7,0.7c6.2-9.3,14.9-13.5,26.1-13.4c0,4.5,0,8.9,0,13.6c-1.6,0.1-3.2,0.2-4.7,0.4c-15.4,1.7-21.8,8.8-21.9,24.4
	c0,12.2,0,24.5,0,36.7C3585.5,481.8,3585.5,483.3,3585.5,485.2z"/>
</svg>
