<?xml version="1.0" encoding="utf-8"?>
<!-- Generator: Adobe Illustrator 24.2.3, SVG Export Plug-In . SVG Version: 6.00 Build 0)  -->
<svg version="1.1" id="Capa_1" xmlns="http://www.w3.org/2000/svg" xmlns:xlink="http://www.w3.org/1999/xlink" x="0px" y="0px"
	 viewBox="0 0 431.4 112.6" style="enable-background:new 0 0 431.4 112.6;" xml:space="preserve">
<style type="text/css">
	.st0{fill:#004254;}
</style>
<g>
	<rect x="0" y="27.7" class="st0" width="27.9" height="84.8"/>
	<path class="st0" d="M76.9,112.6H49V27.7h59.5c14.4,0,24.7,5.4,28.7,14.9c2,4.9,2.8,11.6,2.8,23.1v46.8h-27.9v-44
		c0-8.7-0.5-11.6-1.9-14.1c-1.9-2.9-4.7-3.9-12.1-3.9H76.9V112.6z"/>
	<path class="st0" d="M199.1,112.6c-18.5,0-29-3.9-35.3-12.7c-3.7-5.4-5.4-14.4-5.4-28.6V69c0-16.7,2.2-25.6,7.9-31.3
		c7-7.2,16.3-10,32.8-10h25.4V0h27.9v112.6H199.1z M224.5,50.5h-23.1c-13.2,0-15.2,2.3-15.2,18.1v3c0,15.8,2,18.1,15.2,18.1h23.1
		V50.5z"/>
	<path class="st0" d="M270.8,65.7c0-11.5,0.7-18.2,2.8-23.1c4-9.5,14.2-14.9,28.6-14.9h19.6v22.8h-9.3c-7.3,0-10.1,0.9-11.9,3.9
		c-1.4,2.5-1.9,5.4-1.9,14.1v44h-27.9V65.7z"/>
	<path class="st0" d="M378.1,112.6c-18.5,0-29-3.9-35.4-12.7c-3.7-5.4-5.4-14.4-5.4-28.6V69c0-16.7,2.2-25.6,7.9-31.3
		c7-7.2,16.3-10,32.9-10h53.3v84.8H378.1z M403.5,50.5h-23.1c-13.2,0-15.2,2.3-15.2,18.1v3c0,15.8,2,18.1,15.2,18.1h23.1V50.5z"/>
</g>
</svg>
